<?xml version="1.0" encoding="utf-8"?>
<!-- Generator: Adobe Illustrator 21.0.0, SVG Export Plug-In . SVG Version: 6.00 Build 0)  -->
<svg version="1.1" id="Layer_1" xmlns="http://www.w3.org/2000/svg" xmlns:xlink="http://www.w3.org/1999/xlink" x="0px" y="0px"
	 viewBox="0 0 28.6 26" enable-background="new 0 0 28.6 26" xml:space="preserve">
<polygon fill="#FFFFFF" points="23.9,0 23.9,10.2 23.9,10.4 23.9,10.5 23.8,10.5 23.6,10.5 21.3,10.5 19.8,14.4 23.6,14.4 
	23.8,14.4 23.9,14.4 23.9,14.5 23.9,14.6 23.9,26 28.6,26 28.6,0 "/>
<polyline fill="#FFFFFF" points="16.9,10.5 16.8,10.5 16.8,10.4 16.8,10.2 "/>
<polygon fill="#FFFFFF" points="12.1,26 6.7,26 16.6,0 21.9,0 "/>
<polygon fill="#FFFFFF" points="9.3,10.5 5,10.5 4.9,10.5 4.8,10.5 4.8,10.4 4.8,10.2 4.8,0 0,0 0,26 4.8,26 4.8,14.6 4.8,14.5 
	4.8,14.4 4.9,14.4 5,14.4 7.8,14.4 "/>
</svg>
