<?xml version="1.0" encoding="utf-8"?><!DOCTYPE svg PUBLIC "-//W3C//DTD SVG 1.1//EN" "http://www.w3.org/Graphics/SVG/1.1/DTD/svg11.dtd"><svg xmlns="http://www.w3.org/2000/svg" x="0" y="0" viewBox="0 0 49 49"><polyline fill="#989898" points="45.8,46.8 45.8,16.6 41.8,16.6 41.8,29.7 26.3,29.7 26.3,0.4 22.4,0.4 22.4,13.3 6.6,13.3 6.6,0.4 2.6,0.4 2.6,30.3 6.6,30.3 6.6,16.6 22.4,16.6 22.4,46.8 26.3,46.8 26.3,32.9 41.8,32.9 41.8,46.8"/><polyline points="45.8,47.8 45.8,17.6 41.8,17.6 41.8,30.7 26.3,30.7 26.3,1.4 22.4,1.4 22.4,14.3 6.6,14.3 6.6,1.4 2.6,1.4 2.6,31.3 6.6,31.3 6.6,17.6 22.4,17.6 22.4,47.8 26.3,47.8 26.3,33.9 41.8,33.9 41.8,47.8"/></svg>
