<?xml version="1.0" encoding="utf-8"?>
<svg xml:space="preserve" viewBox="0 0 28.6 26" y="0px" x="0px" xmlns:xlink="http://www.w3.org/1999/xlink" xmlns="http://www.w3.org/2000/svg" id="Layer_1" version="1.1" style="height: 100%; width: 100%; background: none; shape-rendering: auto;" width="128px" height="128px"><g class="ldl-scale" style="transform-origin: 50% 50%; transform: scale(0.8);"><g class="ldl-ani" style="transform-origin: 14.3px 13px;">
<g class="ldl-layer"><g class="ldl-ani" style="transform-origin: 14.3px 13px; transform: matrix(1, 0, 0, 1, 0, 0); animation: 1.11111s linear -0.952778s infinite normal forwards running bounce-c686b377-9660-4f2e-b2a9-38ebe1311d31;"><polygon points="23.9,0 23.9,10.2 23.9,10.4 23.9,10.5 23.8,10.5 23.6,10.5 21.3,10.5 19.8,14.4 23.6,14.4 
	23.8,14.4 23.9,14.4 23.9,14.5 23.9,14.6 23.9,26 28.6,26 28.6,0" fill="#FFFFFF" style="fill: rgb(225, 225, 225);"></polygon></g></g>
<g class="ldl-layer"><g class="ldl-ani" style="transform-origin: 14.3px 13px; transform: matrix(1, 0, 0, 1, 0, 0); animation: 1.11111s linear -1.00556s infinite normal forwards running bounce-c686b377-9660-4f2e-b2a9-38ebe1311d31;"><polyline points="16.9,10.5 16.8,10.5 16.8,10.4 16.8,10.2" fill="#FFFFFF" style="fill: rgb(225, 225, 225);"></polyline></g></g>
<g class="ldl-layer"><g class="ldl-ani" style="transform-origin: 14.3px 13px; transform: matrix(1, 0, 0, 1, 0, 0); animation: 1.11111s linear -1.05833s infinite normal forwards running bounce-c686b377-9660-4f2e-b2a9-38ebe1311d31;"><polygon points="12.1,26 6.7,26 16.6,0 21.9,0" fill="#FFFFFF" style="fill: rgb(225, 225, 225);"></polygon></g></g>
<g class="ldl-layer"><g class="ldl-ani" style="transform-origin: 14.3px 13px; transform: matrix(1, 0, 0, 1, 0, 0); animation: 1.11111s linear -1.11111s infinite normal forwards running bounce-c686b377-9660-4f2e-b2a9-38ebe1311d31;"><polygon points="9.3,10.5 5,10.5 4.9,10.5 4.8,10.5 4.8,10.4 4.8,10.2 4.8,0 0,0 0,26 4.8,26 4.8,14.6 4.8,14.5 
	4.8,14.4 4.9,14.4 5,14.4 7.8,14.4" fill="#FFFFFF" style="fill: rgb(225, 225, 225);"></polygon></g></g>
</g></g><style id="bounce-c686b377-9660-4f2e-b2a9-38ebe1311d31" data-anikit="">@keyframes bounce-c686b377-9660-4f2e-b2a9-38ebe1311d31
{
  0% {
    animation-timing-function: cubic-bezier(0.1361,0.2514,0.2175,0.8786);
    transform: translate(0,0px) scaleY(1);
  }
  37% {
    animation-timing-function: cubic-bezier(0.7674,0.1844,0.8382,0.7157);
    transform: translate(0,-4.995px) scaleY(1);
  }
  72% {
    animation-timing-function: cubic-bezier(0.2562,0.4952,0.4945,0.9788);
    transform: translate(0,0px) scaleY(1);
  }
  87% {
    animation-timing-function: cubic-bezier(0.4921,0.1447,0.7334,0.5519);
    transform: translate(0,1.904px) scaleY(0.881);
  }
  100% {
    transform: translate(0,0px) scaleY(1);
  }
}</style><!-- [ldio] generated by https://loading.io/ --></svg>