<?xml version="1.0" encoding="utf-8"?>
<!-- Generator: Adobe Illustrator 21.0.0, SVG Export Plug-In . SVG Version: 6.00 Build 0)  -->
<svg version="1.1" id="Layer_1" xmlns="http://www.w3.org/2000/svg" xmlns:xlink="http://www.w3.org/1999/xlink" x="0px" y="0px"
	 viewBox="0 0 165 60" enable-background="new 0 0 165 60" xml:space="preserve">
<g>
	<polygon fill="#fff" points="15.6,10.9 5,10.9 4.9,10.9 4.8,10.9 4.8,10.8 4.8,10.7 4.8,0.5 0,0.5 0,26.4 4.8,26.4 4.8,15 
		4.8,14.9 4.8,14.8 4.9,14.8 5,14.8 15.6,14.8 15.8,14.8 15.9,14.8 15.9,14.9 15.9,15 15.9,26.4 20.6,26.4 20.6,0.5 15.9,0.5 
		15.9,10.7 15.9,10.8 15.9,10.9 15.8,10.9 	"/>
	<path fill="#fff" d="M59.7,22.9c-2,0-3.7-0.8-4.9-2.2c-1.2-1.5-1.9-4-1.9-7.4c0-3.2,0.6-5.6,1.9-7.1c1.3-1.5,3-2.2,5-2.2
		c1.5,0,2.8,0.4,3.8,1.3c1,0.8,1.6,1.8,2,3.1l4.7-1.1c-0.6-1.9-1.4-3.4-2.5-4.5c-2-1.9-4.6-2.8-7.7-2.8c-3.6,0-6.6,1.2-8.8,3.6
		C49.1,6,48,9.4,48,13.7c0,4.1,1.1,7.3,3.3,9.7c2.2,2.3,5.1,3.5,8.5,3.5c2.8,0,5.1-0.7,6.9-2.1c1.7-1.3,3-3.3,3.8-6l-4.6-1.5
		c-0.5,1.8-1.2,3.2-2.2,4.1C62.5,22.4,61.2,22.9,59.7,22.9z"/>
	<polygon fill="#fff" points="85.9,10.5 85.9,10.5 86,10.4 86,10.3 95.6,0.5 89.2,0.5 78.3,12.3 78.1,12.5 77.9,12.7 77.9,12.5 
		77.9,12.1 77.9,0.5 73.2,0.5 73.2,26.4 77.9,26.4 77.9,18.7 77.9,18.6 77.9,18.6 78,18.5 78,18.5 82.4,14 82.6,13.9 82.6,13.8 
		82.7,13.9 82.8,14 82.8,14.1 90.1,26.4 96.3,26.4 86,10.6 	"/>
	<path fill="#fff" d="M106.6,26.9c2.3,0,4.2-0.3,5.7-0.9c1.5-0.6,2.6-1.6,3.5-2.8c0.8-1.3,1.2-2.7,1.2-4.1c0-1.6-0.3-3-1-4.1
		c-0.7-1.1-1.6-2-2.8-2.6c-1.2-0.6-3.1-1.3-5.7-1.9c-2.6-0.6-4.3-1.2-5-1.8c-0.6-0.5-0.9-1.1-0.9-1.8c0-0.8,0.3-1.4,1-1.9
		c0.9-0.7,2.2-1,3.8-1c1.6,0,2.8,0.3,3.6,1c0.8,0.6,1.3,1.6,1.5,2.9l4.8-0.2c-0.1-2.2-1-4-2.5-5.3C112,0.7,109.5,0,106.3,0
		c-2,0-3.7,0.3-5.1,0.9c-1.4,0.6-2.5,1.5-3.2,2.6c-0.7,1.1-1.1,2.3-1.1,3.6c0,2,0.8,3.7,2.3,5.1c1.1,1,3.1,1.9,5.9,2.6
		c2.3,0.6,3.7,0.9,4.3,1.2c1,0.3,1.7,0.8,2.1,1.2c0.4,0.5,0.6,1.1,0.6,1.8c0,1.1-0.5,2-1.4,2.8c-0.9,0.8-2.3,1.2-4.1,1.2
		c-1.7,0-3.1-0.4-4.1-1.3c-1-0.8-1.6-2.1-2-3.8l-4.6,0.5c0.4,2.7,1.4,4.9,3.1,6.3C100.8,26.1,103.3,26.9,106.6,26.9z"/>
	<polygon fill="#fff" points="15.6,44 5,44 4.9,44 4.8,44 4.8,43.9 4.8,43.8 4.8,33.6 0,33.6 0,59.5 4.8,59.5 4.8,48.1 4.8,48 
		4.8,47.9 4.9,47.9 5,47.9 15.6,47.9 15.8,47.9 15.9,47.9 15.9,48 15.9,48.1 15.9,59.5 20.6,59.5 20.6,33.6 15.9,33.6 15.9,43.8 
		15.9,43.9 15.9,44 15.8,44 	"/>
	<path fill="#fff" d="M59.7,56c-2,0-3.7-0.8-4.9-2.2c-1.2-1.5-1.9-3.9-1.9-7.4c0-3.2,0.6-5.6,1.9-7.1c1.3-1.5,3-2.2,5-2.2
		c1.5,0,2.8,0.4,3.8,1.3c1,0.8,1.6,1.8,2,3.1l4.7-1.1c-0.6-1.9-1.4-3.4-2.5-4.5c-2-1.9-4.6-2.8-7.7-2.8c-3.6,0-6.6,1.2-8.8,3.6
		c-2.2,2.4-3.3,5.8-3.3,10.1c0,4.1,1.1,7.3,3.3,9.7c2.2,2.3,5.1,3.5,8.5,3.5c2.8,0,5.1-0.7,6.9-2.1c1.7-1.3,3-3.3,3.8-6l-4.6-1.5
		c-0.5,1.8-1.2,3.2-2.2,4.1C62.5,55.5,61.2,56,59.7,56z"/>
	<polygon fill="#fff" points="85.9,43.6 85.9,43.6 86,43.5 86,43.4 95.6,33.6 89.2,33.6 78.3,45.4 78.1,45.6 77.9,45.8 
		77.9,45.6 77.9,45.2 77.9,33.6 73.2,33.6 73.2,59.5 77.9,59.5 77.9,51.8 77.9,51.7 77.9,51.7 78,51.6 78,51.6 82.4,47.1 82.6,47 
		82.6,46.9 82.7,47 82.8,47.1 82.8,47.2 90.1,59.5 96.3,59.5 86,43.7 	"/>
	<polygon fill="#fff" points="103.5,55.6 103.4,55.6 103.4,55.5 103.4,55.4 103.4,48 103.4,47.9 103.4,47.8 103.5,47.8 
		103.7,47.8 116.8,47.8 116.8,43.9 103.7,43.9 103.5,43.9 103.4,43.9 103.4,43.8 103.4,43.7 103.4,37.7 103.4,37.5 103.4,37.5 
		103.5,37.5 103.7,37.5 117.8,37.5 117.8,33.6 98.7,33.6 98.7,59.5 118.3,59.5 118.3,55.6 103.7,55.6 	"/>
	<path fill="#fff" d="M138.5,50.5c-0.7-0.8-1.7-1.5-2.8-2.2l-0.2-0.1l-0.3-0.2l-0.2-0.1l0.3,0l0.4-0.1l0.2,0
		c2.2-0.3,4-1.1,5.1-2.4c1.1-1.2,1.7-2.8,1.7-4.7c0-1.5-0.4-2.9-1.1-4c-0.7-1.2-1.7-2-2.9-2.4c-1.2-0.5-3.3-0.7-6.1-0.7h-11v26h4.8
		V48.7v-0.1v-0.1h0.1h0.1h1.2c1.3,0,2.2,0.1,2.8,0.3c0.6,0.2,1.2,0.6,1.7,1.2c0.5,0.5,1.5,1.9,2.9,3.9l3.8,5.6h5.7l-3-4.7
		C140.2,52.8,139.2,51.3,138.5,50.5z M130.4,44.8h-4h-0.1h-0.1v-0.1v-0.1v-6.9v-0.1v-0.1h0.1h0.1h4.3c2.2,0,3.5,0,4,0.1
		c0.9,0.2,1.7,0.5,2.2,1.1c0.5,0.6,0.8,1.4,0.8,2.4c0,0.9-0.2,1.6-0.6,2.2c-0.4,0.6-1,1-1.7,1.2C134.7,44.7,133.1,44.8,130.4,44.8z"
		/>
	<path fill="#fff" d="M161.2,45.4c-1.2-0.6-3.1-1.3-5.7-1.9c-2.6-0.6-4.3-1.2-5-1.8c-0.6-0.5-0.9-1.1-0.9-1.8
		c0-0.8,0.3-1.4,1-1.9c0.9-0.7,2.2-1,3.8-1c1.6,0,2.8,0.3,3.6,1c0.8,0.6,1.3,1.6,1.5,2.9l4.8-0.2c-0.1-2.2-1-4-2.5-5.3
		c-1.6-1.4-4.1-2.1-7.3-2.1c-2,0-3.7,0.3-5.1,0.9c-1.4,0.6-2.5,1.5-3.2,2.6c-0.7,1.1-1.1,2.3-1.1,3.6c0,2,0.8,3.7,2.3,5.1
		c1.1,1,3.1,1.9,5.9,2.6c2.3,0.6,3.7,0.9,4.3,1.2c1,0.3,1.7,0.8,2.1,1.2c0.4,0.5,0.6,1.1,0.6,1.8c0,1.1-0.5,2-1.4,2.8
		c-0.9,0.8-2.3,1.2-4.1,1.2c-1.7,0-3.1-0.4-4.1-1.3c-1-0.8-1.6-2.1-2-3.8l-4.6,0.5c0.4,2.7,1.4,4.9,3.1,6.3c1.7,1.5,4.3,2.3,7.5,2.3
		c2.3,0,4.2-0.3,5.7-0.9c1.5-0.6,2.6-1.6,3.5-2.8c0.8-1.3,1.2-2.7,1.2-4.1c0-1.6-0.3-3-1-4.1C163.4,46.9,162.4,46,161.2,45.4z"/>
	<path fill="#fff" d="M136.3,0.5h-4.7l-10.1,26h4.5L136.3,0.5z"/>
	<g>
		<polygon fill="#fff" points="30.1,20.4 37.9,0.5 32.8,0.5 22.7,26.4 27.8,26.4 30.1,20.4 		"/>
		<polygon fill="#fff" points="40.3,6 37.9,12.2 39.4,16.2 39.5,16.4 39.5,16.5 39.4,16.5 39.2,16.5 36.2,16.5 34.6,20.4 
			40.8,20.4 40.9,20.4 41,20.4 41,20.5 41.1,20.5 41.1,20.6 43.3,26.4 48.5,26.4 		"/>
	</g>
	<g>
		<polygon fill="#fff" points="30.1,53.5 37.9,33.6 32.9,33.6 22.7,59.5 27.8,59.5 30.1,53.5 		"/>
		<polygon fill="#fff" points="40.4,39.1 37.9,45.3 39.4,49.3 39.5,49.5 39.5,49.6 39.4,49.6 39.2,49.6 36.2,49.6 34.6,53.5 
			40.9,53.5 40.9,53.5 41,53.5 41,53.6 41.1,53.6 41.1,53.7 43.3,59.5 48.5,59.5 		"/>
	</g>
</g>
</svg>
