<?xml version="1.0" encoding="utf-8"?>
<!-- Generator: Adobe Illustrator 21.0.0, SVG Export Plug-In . SVG Version: 6.00 Build 0)  -->
<svg version="1.1" id="Layer_1" xmlns="http://www.w3.org/2000/svg" xmlns:xlink="http://www.w3.org/1999/xlink" x="0px" y="0px"
	 viewBox="0 0 200 100" enable-background="new 0 0 200 100" xml:space="preserve">
<g opacity="0.1">
	<polygon fill="#FFFFFF" points="22.2,27.8 9.8,27.8 9.7,27.8 9.6,27.8 9.6,27.7 9.6,27.5 9.6,15.6 4,15.6 4,45.8 9.6,45.8 
		9.6,32.6 9.6,32.4 9.6,32.3 9.7,32.3 9.8,32.3 22.2,32.3 22.4,32.3 22.5,32.3 22.5,32.4 22.5,32.6 22.5,45.8 28,45.8 28,15.6 
		22.5,15.6 22.5,27.5 22.5,27.7 22.5,27.8 22.4,27.8 	"/>
	<path fill="#FFFFFF" d="M73.4,41.7c-2.3,0-4.3-0.9-5.7-2.6c-1.5-1.7-2.2-4.6-2.2-8.6c0-3.7,0.7-6.5,2.2-8.2
		c1.5-1.7,3.4-2.6,5.8-2.6c1.7,0,3.2,0.5,4.4,1.5c1.1,0.9,1.9,2.1,2.3,3.6l5.5-1.3c-0.7-2.2-1.7-4-3-5.2c-2.3-2.2-5.3-3.3-9-3.3
		c-4.2,0-7.6,1.4-10.2,4.2C61.1,22,59.8,26,59.8,31c0,4.7,1.3,8.5,3.9,11.3c2.6,2.7,5.9,4.1,9.9,4.1c3.2,0,5.9-0.8,8-2.4
		c2-1.5,3.5-3.9,4.4-7l-5.4-1.7C80,37.4,79.1,39,78,40.1C76.7,41.2,75.2,41.7,73.4,41.7z"/>
	<polygon fill="#FFFFFF" points="104,27.4 103.9,27.3 104,27.2 104.1,27.1 115.2,15.6 107.8,15.6 95.1,29.4 94.8,29.7 94.7,29.9 
		94.7,29.6 94.7,29.2 94.7,15.6 89.1,15.6 89.1,45.8 94.7,45.8 94.7,36.8 94.7,36.8 94.7,36.7 94.7,36.7 94.7,36.6 99.9,31.4 
		100,31.2 100.1,31.1 100.2,31.2 100.3,31.4 100.4,31.5 108.7,45.8 116,45.8 104,27.5 	"/>
	<path fill="#FFFFFF" d="M127.9,46.4c2.6,0,4.8-0.4,6.6-1.1c1.7-0.7,3.1-1.8,4-3.3c0.9-1.5,1.4-3.1,1.4-4.8c0-1.9-0.4-3.5-1.2-4.7
		c-0.8-1.3-1.9-2.3-3.3-3c-1.4-0.7-3.7-1.5-6.7-2.2c-3.1-0.7-5-1.4-5.9-2.1c-0.7-0.6-1-1.3-1-2.1c0-0.9,0.4-1.7,1.1-2.2
		c1.1-0.8,2.6-1.2,4.5-1.2c1.8,0,3.2,0.4,4.2,1.1c0.9,0.7,1.5,1.8,1.8,3.3l5.6-0.2c-0.2-2.6-1.2-4.7-3-6.2c-1.9-1.6-4.8-2.5-8.5-2.5
		c-2.3,0-4.3,0.4-5.9,1c-1.6,0.7-2.9,1.7-3.7,3c-0.9,1.3-1.3,2.7-1.3,4.2c0,2.3,0.9,4.3,2.7,6c1.3,1.2,3.6,2.2,6.9,3
		c2.6,0.7,4.3,1.1,5,1.4c1.1,0.4,1.9,0.9,2.4,1.4c0.5,0.6,0.7,1.3,0.7,2.1c0,1.2-0.6,2.3-1.7,3.2c-1.1,0.9-2.7,1.4-4.8,1.4
		c-2,0-3.6-0.5-4.7-1.5c-1.1-1-1.9-2.4-2.3-4.4l-5.4,0.5c0.4,3.2,1.6,5.6,3.6,7.3C121.2,45.5,124.1,46.4,127.9,46.4z"/>
	<polygon fill="#FFFFFF" points="22.2,66.3 9.8,66.3 9.7,66.3 9.6,66.3 9.6,66.2 9.6,66 9.6,54.1 4,54.1 4,84.3 9.6,84.3 9.6,71.1 
		9.6,70.9 9.6,70.8 9.7,70.8 9.8,70.8 22.2,70.8 22.4,70.8 22.5,70.8 22.5,70.9 22.5,71.1 22.5,84.3 28,84.3 28,54.1 22.5,54.1 
		22.5,66 22.5,66.2 22.5,66.3 22.4,66.3 	"/>
	<path fill="#FFFFFF" d="M73.4,80.2c-2.3,0-4.3-0.9-5.7-2.6c-1.5-1.7-2.2-4.6-2.2-8.6c0-3.7,0.7-6.5,2.2-8.2
		c1.5-1.7,3.4-2.6,5.8-2.6c1.7,0,3.2,0.5,4.4,1.5c1.1,0.9,1.9,2.1,2.3,3.6l5.5-1.3c-0.7-2.2-1.7-4-3-5.2c-2.3-2.2-5.3-3.3-9-3.3
		c-4.2,0-7.6,1.4-10.2,4.2c-2.6,2.8-3.9,6.7-3.9,11.7c0,4.7,1.3,8.5,3.9,11.3c2.6,2.7,5.9,4.1,9.9,4.1c3.2,0,5.9-0.8,8-2.4
		c2-1.5,3.5-3.9,4.4-7l-5.4-1.7c-0.5,2.1-1.4,3.8-2.6,4.8C76.7,79.7,75.2,80.2,73.4,80.2z"/>
	<polygon fill="#FFFFFF" points="104,65.9 103.9,65.8 104,65.7 104.1,65.6 115.2,54.1 107.8,54.1 95.1,67.9 94.8,68.2 94.7,68.4 
		94.7,68.1 94.7,67.7 94.7,54.1 89.1,54.1 89.1,84.3 94.7,84.3 94.7,75.3 94.7,75.3 94.7,75.2 94.7,75.2 94.7,75.1 99.9,69.9 
		100,69.7 100.1,69.6 100.2,69.7 100.3,69.9 100.4,70 108.7,84.3 116,84.3 104,66 	"/>
	<polygon fill="#FFFFFF" points="124.4,79.8 124.3,79.8 124.3,79.7 124.3,79.6 124.3,71 124.3,70.8 124.3,70.7 124.4,70.7 
		124.6,70.7 139.8,70.7 139.8,66.2 124.6,66.2 124.4,66.2 124.3,66.2 124.3,66.1 124.3,65.9 124.3,58.9 124.3,58.8 124.3,58.7 
		124.4,58.7 124.6,58.7 141,58.7 141,54.1 118.8,54.1 118.8,84.3 141.6,84.3 141.6,79.8 124.6,79.8 	"/>
	<path fill="#FFFFFF" d="M165.1,73.9c-0.9-0.9-1.9-1.8-3.3-2.5l-0.2-0.1l-0.4-0.2l-0.3-0.2l0.3,0l0.4-0.1l0.2,0
		c2.6-0.4,4.6-1.3,5.9-2.7c1.3-1.4,2-3.3,2-5.5c0-1.8-0.4-3.3-1.3-4.7c-0.9-1.3-2-2.3-3.4-2.8c-1.4-0.5-3.8-0.8-7.1-0.8h-12.8v30.2
		h5.6V71.7v-0.2v-0.1h0.1h0.2h1.3c1.5,0,2.6,0.1,3.3,0.4c0.7,0.2,1.4,0.7,2,1.4c0.6,0.6,1.7,2.2,3.3,4.6l4.4,6.6h6.7l-3.4-5.5
		C167.1,76.5,165.9,74.8,165.1,73.9z M155.7,67.2H151h-0.2h-0.1v-0.1v-0.2v-8v-0.2v-0.1h0.1h0.2h4.9c2.5,0,4.1,0,4.6,0.1
		c1.1,0.2,2,0.6,2.6,1.3c0.6,0.7,0.9,1.6,0.9,2.7c0,1-0.2,1.8-0.7,2.5c-0.5,0.7-1.1,1.2-1.9,1.4C160.6,67.1,158.8,67.2,155.7,67.2z"
		/>
	<path fill="#FFFFFF" d="M191.5,67.9c-1.4-0.7-3.7-1.5-6.7-2.2c-3.1-0.7-5-1.4-5.9-2.1c-0.7-0.6-1-1.3-1-2.1c0-0.9,0.4-1.7,1.1-2.2
		c1.1-0.8,2.6-1.2,4.5-1.2c1.8,0,3.2,0.4,4.2,1.1c0.9,0.7,1.5,1.8,1.8,3.3l5.6-0.2c-0.2-2.6-1.2-4.7-3-6.2c-1.9-1.6-4.8-2.5-8.5-2.5
		c-2.3,0-4.3,0.4-5.9,1c-1.6,0.7-2.9,1.7-3.7,3c-0.9,1.3-1.3,2.7-1.3,4.2c0,2.3,0.9,4.3,2.7,6c1.3,1.2,3.6,2.2,6.9,3
		c2.6,0.7,4.3,1.1,5,1.4c1.1,0.4,1.9,0.9,2.4,1.4c0.5,0.6,0.7,1.3,0.7,2.1c0,1.2-0.6,2.3-1.7,3.2c-1.1,0.9-2.7,1.4-4.8,1.4
		c-2,0-3.6-0.5-4.7-1.5c-1.1-1-1.9-2.4-2.3-4.4l-5.4,0.5c0.4,3.2,1.6,5.6,3.6,7.3c2,1.7,5,2.6,8.8,2.6c2.6,0,4.8-0.4,6.6-1.1
		c1.7-0.7,3.1-1.8,4-3.3c0.9-1.5,1.4-3.1,1.4-4.8c0-1.9-0.4-3.5-1.2-4.7C194,69.7,192.9,68.7,191.5,67.9z"/>
	<path fill="#FFFFFF" d="M162.5,15.6h-5.4l-11.8,30.2h5.2L162.5,15.6z"/>
	<g>
		<polygon fill="#FFFFFF" points="39.1,38.8 48.1,15.6 42.2,15.6 30.4,45.8 36.3,45.8 39,38.8 		"/>
		<polygon fill="#FFFFFF" points="50.9,22.1 48.1,29.3 49.8,34 49.9,34.2 49.9,34.3 49.8,34.3 49.6,34.3 46.1,34.3 44.3,38.8 
			51.5,38.8 51.6,38.8 51.7,38.8 51.7,38.9 51.8,39 51.8,39 54.4,45.8 60.4,45.8 		"/>
	</g>
	<g>
		<polygon fill="#FFFFFF" points="39.1,77.3 48.1,54.1 42.2,54.1 30.4,84.3 36.3,84.3 39.1,77.3 		"/>
		<polygon fill="#FFFFFF" points="50.9,60.6 48.1,67.8 49.8,72.5 49.9,72.7 50,72.8 49.8,72.8 49.6,72.8 46.1,72.8 44.3,77.3 
			51.5,77.3 51.6,77.3 51.7,77.3 51.7,77.4 51.8,77.5 51.8,77.6 54.4,84.3 60.4,84.3 		"/>
	</g>
</g>
</svg>
