<?xml version="1.0" encoding="utf-8"?>
<!-- Generator: Adobe Illustrator 21.0.0, SVG Export Plug-In . SVG Version: 6.00 Build 0)  -->
<svg version="1.1" id="Layer_1" xmlns="http://www.w3.org/2000/svg" xmlns:xlink="http://www.w3.org/1999/xlink" x="0px" y="0px"
	 viewBox="0 0 103 26" enable-background="new 0 0 103 26" xml:space="preserve">
<g opacity="0.75">
	<g>
		<polygon fill="#FFFFFF" points="23.9,0 23.9,10.2 23.9,10.4 23.9,10.5 23.8,10.5 23.6,10.5 21.3,10.5 19.8,14.4 23.6,14.4 
			23.8,14.4 23.9,14.4 23.9,14.5 23.9,14.6 23.9,26 28.6,26 28.6,0 		"/>
	</g>
	<g>
		<polyline fill="#FFFFFF" points="16.9,10.5 16.8,10.5 16.8,10.4 16.8,10.2 		"/>
	</g>
	<g>
		<polygon fill="#FFFFFF" points="12.1,26 6.7,26 16.6,0 21.9,0 		"/>
	</g>
	<g>
		<polygon fill="#FFFFFF" points="9.3,10.5 5,10.5 4.9,10.5 4.8,10.5 4.8,10.4 4.8,10.2 4.8,0 0,0 0,26 4.8,26 4.8,14.6 4.8,14.5 
			4.8,14.4 4.9,14.4 5,14.4 7.8,14.4 		"/>
	</g>
</g>
<g>
	<path fill="#FFFFFF" d="M46.1,26.1V4.4h-7.7V0h20.7v4.4h-7.7v21.7H46.1z"/>
	<path fill="#FFFFFF" d="M60.9,26.1V0h8.4c3.2,0,5.3,0.1,6.3,0.4c1.5,0.4,2.7,1.2,3.8,2.6c1,1.3,1.5,3,1.5,5.1c0,1.6-0.3,2.9-0.9,4
		s-1.3,1.9-2.2,2.6c-0.9,0.6-1.8,1-2.7,1.2c-1.3,0.2-3.1,0.4-5.5,0.4h-3.4v9.8H60.9z M66.1,4.4v7.4H69c2.1,0,3.5-0.1,4.2-0.4
		c0.7-0.3,1.2-0.7,1.6-1.3s0.6-1.3,0.6-2c0-0.9-0.3-1.7-0.8-2.3c-0.6-0.6-1.3-1-2.1-1.2c-0.6-0.1-1.9-0.2-3.8-0.2H66.1z"/>
	<path fill="#FFFFFF" d="M83.5,26.1V0h19.3v4.4H88.8v5.8h13.1v4.4H88.8v7.1h14.6v4.4H83.5z"/>
</g>
</svg>
